<svg width="181" height="57" viewBox="0 0 181 57" fill="none" xmlns="http://www.w3.org/2000/svg">
<circle cx="28.5" cy="28.5" r="28.5" fill="white"/>
<path d="M39.4183 16.2858H17.5503L28.4843 27.0334L39.4183 16.2858Z" fill="#202020"/>
<path d="M17.5503 40.1955H39.4183L28.4843 29.4478L17.5503 40.1955Z" fill="#202020"/>
<path d="M16.2836 17.5315V39.0267L27.2177 28.2791L16.2836 17.5315Z" fill="#202020"/>
<path d="M40.6116 39.0267V17.5314L29.6776 28.279L40.6116 39.0267Z" fill="#202020"/>
<path d="M73.295 34C73.295 33.4447 73.295 32.9103 73.295 32.397C73.295 31.8837 73.295 31.319 73.295 30.703V27.357C73.295 26.727 73.295 26.153 73.295 25.635C73.295 25.1123 73.295 24.5733 73.295 24.018H74.436C75.0333 24.858 75.6073 25.6677 76.158 26.447C76.7087 27.2263 77.2523 27.994 77.789 28.75L79.952 31.802H80.057V27.357C80.057 26.727 80.057 26.153 80.057 25.635C80.057 25.1123 80.057 24.5733 80.057 24.018H81.261C81.261 24.5733 81.261 25.1123 81.261 25.635C81.261 26.153 81.261 26.727 81.261 27.357V30.703C81.261 31.319 81.261 31.8837 81.261 32.397C81.261 32.9103 81.261 33.4447 81.261 34H80.134C79.6393 33.3 79.119 32.565 78.573 31.795C78.027 31.0203 77.4273 30.171 76.774 29.247L74.597 26.174H74.499V30.703C74.499 31.319 74.499 31.8837 74.499 32.397C74.499 32.9103 74.499 33.4447 74.499 34H73.295Z" fill="#202020"/>
<path d="M88.0497 34C88.0497 33.4447 88.0497 32.9103 88.0497 32.397C88.0497 31.8837 88.0497 31.319 88.0497 30.703V27.35C88.0497 26.7293 88.0497 26.1577 88.0497 25.635C88.0497 25.1123 88.0497 24.5733 88.0497 24.018H94.2517V25.103C93.785 25.103 93.2834 25.103 92.7467 25.103C92.2147 25.103 91.5847 25.103 90.8567 25.103H88.5887L89.2887 24.2C89.2887 24.76 89.2887 25.3013 89.2887 25.824C89.2887 26.342 89.2887 26.9113 89.2887 27.532V30.514C89.2887 31.1253 89.2887 31.69 89.2887 32.208C89.2887 32.7213 89.2887 33.2557 89.2887 33.811L88.6587 32.915H90.9687C91.58 32.915 92.1564 32.915 92.6977 32.915C93.2437 32.915 93.7664 32.915 94.2657 32.915V34H88.0497ZM89.0157 29.471V28.414H90.9547C91.5987 28.414 92.154 28.414 92.6207 28.414C93.0874 28.414 93.5377 28.414 93.9717 28.414V29.471C93.5144 29.471 93.0524 29.471 92.5857 29.471C92.1237 29.471 91.5777 29.471 90.9477 29.471H89.0157Z" fill="#202020"/>
<path d="M102.522 34C102.382 33.5053 102.231 32.9757 102.067 32.411C101.904 31.8463 101.752 31.3237 101.612 30.843L100.716 27.721C100.558 27.1657 100.383 26.5567 100.191 25.894C99.9999 25.2267 99.8202 24.6013 99.6522 24.018H101.052C101.248 24.732 101.451 25.4833 101.661 26.272C101.871 27.0607 102.072 27.812 102.263 28.526L103.334 32.502H103.453L104.496 28.477C104.618 28.015 104.744 27.5297 104.874 27.021C105.01 26.5077 105.143 25.9967 105.273 25.488C105.409 24.9747 105.537 24.4847 105.658 24.018H107.128C107.315 24.732 107.511 25.4763 107.716 26.251C107.922 27.021 108.12 27.7677 108.311 28.491L109.375 32.502H109.494L110.579 28.47C110.766 27.7747 110.964 27.0327 111.174 26.244C111.384 25.4553 111.583 24.7133 111.769 24.018H113.176C113.004 24.6107 112.822 25.2337 112.63 25.887C112.444 26.5403 112.269 27.1423 112.105 27.693L111.195 30.843C111.051 31.3423 110.897 31.8743 110.733 32.439C110.575 32.999 110.423 33.5193 110.278 34H108.654C108.468 33.314 108.269 32.5907 108.059 31.83C107.854 31.0693 107.66 30.3553 107.478 29.688L106.414 25.796H106.288L105.245 29.688C105.068 30.36 104.877 31.0787 104.671 31.844C104.466 32.6093 104.272 33.328 104.09 34H102.522Z" fill="#202020"/>
<path d="M125.558 34C125.624 33.4587 125.689 32.9243 125.754 32.397C125.824 31.8697 125.897 31.2957 125.971 30.675L126.384 27.385C126.459 26.7737 126.529 26.2043 126.594 25.677C126.66 25.1497 126.73 24.5967 126.804 24.018H128.078C128.368 24.7273 128.648 25.4133 128.918 26.076C129.189 26.734 129.457 27.3897 129.723 28.043L131.305 31.921H131.403L132.971 28.05C133.237 27.3873 133.503 26.7293 133.769 26.076C134.035 25.4227 134.311 24.7367 134.595 24.018H135.869C135.939 24.5873 136.005 25.1357 136.065 25.663C136.131 26.1903 136.203 26.762 136.282 27.378L136.688 30.703C136.763 31.3097 136.833 31.8743 136.898 32.397C136.964 32.915 137.029 33.4493 137.094 34H135.883C135.776 33.1133 135.673 32.271 135.575 31.473C135.477 30.675 135.386 29.9307 135.302 29.24L134.938 26.258H134.847L133.58 29.471C133.272 30.2503 132.964 31.032 132.656 31.816C132.348 32.5953 132.061 33.3233 131.795 34H130.934C130.766 33.5753 130.58 33.1087 130.374 32.6C130.169 32.0913 129.957 31.571 129.737 31.039C129.523 30.507 129.313 29.9913 129.107 29.492L127.798 26.258H127.707L127.343 29.233C127.259 29.9283 127.168 30.675 127.07 31.473C126.977 32.271 126.877 33.1133 126.769 34H125.558Z" fill="#202020"/>
<path d="M143.535 34C143.535 33.4447 143.535 32.9103 143.535 32.397C143.535 31.8837 143.535 31.319 143.535 30.703V27.357C143.535 26.727 143.535 26.153 143.535 25.635C143.535 25.1123 143.535 24.5733 143.535 24.018H144.823C144.823 24.5733 144.823 25.1123 144.823 25.635C144.823 26.153 144.823 26.727 144.823 27.357V30.703C144.823 31.319 144.823 31.8837 144.823 32.397C144.823 32.9103 144.823 33.4447 144.823 34H143.535Z" fill="#202020"/>
<path d="M150.84 34C151.12 33.5473 151.405 33.0877 151.694 32.621C151.983 32.1543 152.287 31.6667 152.604 31.158L154.137 28.694V29.065L152.8 27.021C152.487 26.5497 152.172 26.0737 151.855 25.593C151.542 25.1123 151.202 24.5873 150.833 24.018H152.296C152.59 24.466 152.875 24.907 153.15 25.341C153.425 25.7703 153.689 26.1787 153.941 26.566L154.907 28.071H155.026L155.971 26.552C156.218 26.1647 156.475 25.754 156.741 25.32C157.012 24.886 157.282 24.452 157.553 24.018H158.981C158.65 24.55 158.332 25.0563 158.029 25.537C157.726 26.0177 157.446 26.461 157.189 26.867L155.754 29.156V28.75L157.238 30.934C157.602 31.466 157.952 31.9793 158.288 32.474C158.624 32.964 158.972 33.4727 159.331 34H157.819C157.525 33.5567 157.245 33.139 156.979 32.747C156.718 32.3503 156.463 31.97 156.216 31.606L155.012 29.8H154.886L153.759 31.613C153.521 32.0003 153.281 32.3853 153.038 32.768C152.8 33.1507 152.546 33.5613 152.275 34H150.84Z" fill="#202020"/>
<path d="M165.347 34C165.347 33.4447 165.347 32.9103 165.347 32.397C165.347 31.8837 165.347 31.319 165.347 30.703V27.357C165.347 26.727 165.347 26.153 165.347 25.635C165.347 25.1123 165.347 24.5733 165.347 24.018H166.635C166.635 24.5733 166.635 25.1123 166.635 25.635C166.635 26.153 166.635 26.727 166.635 27.357V30.703C166.635 31.319 166.635 31.8837 166.635 32.397C166.635 32.9103 166.635 33.4447 166.635 34H165.347Z" fill="#202020"/>
<path d="M175.998 34C175.998 33.4447 175.998 32.9103 175.998 32.397C175.998 31.8837 175.998 31.319 175.998 30.703V27.539C175.998 26.9137 175.998 26.342 175.998 25.824C175.998 25.3013 175.998 24.76 175.998 24.2L176.502 25.145H175.319C174.754 25.145 174.253 25.145 173.814 25.145C173.38 25.145 172.967 25.145 172.575 25.145V24.018H180.681V25.145C180.289 25.145 179.876 25.145 179.442 25.145C179.008 25.145 178.506 25.145 177.937 25.145H176.754L177.265 24.2C177.265 24.76 177.265 25.3013 177.265 25.824C177.265 26.342 177.265 26.9137 177.265 27.539V30.703C177.265 31.319 177.265 31.8837 177.265 32.397C177.265 32.9103 177.265 33.4447 177.265 34H175.998Z" fill="#202020"/>
</svg>
